<svg width="117" height="63" viewBox="0 0 117 63" fill="none" xmlns="http://www.w3.org/2000/svg">
<path d="M8.81262 60.9347C0.499703 63.1813 0.789541 26.8651 2.16851 4.67674C2.27422 2.97571 4.42968 2.25216 5.64958 3.44234C21.5274 18.9334 45.5045 22.7595 56.1219 22.6656C78.2516 22.6656 100.212 14.8782 110.581 10.0266C111.796 9.45787 113.229 10.2401 113.363 11.5753C114.823 26.1118 116.463 51.0668 113.074 53.1001C104.192 58.7099 84.5822 41.5429 75.0663 31.4296C74.539 30.8691 73.7302 30.6739 73.0001 30.9171C60.2051 35.18 49.5238 33.1537 44.5557 31.1377C43.7267 30.8013 42.7593 30.9807 42.1757 31.6587C34.0093 41.1452 17.3704 58.6218 8.81262 60.9347Z" stroke="white" stroke-width="2.79324"/>
<path d="M38.0391 13.195C49.1931 16.2598 74.7045 19.0132 102.801 5.50767" stroke="white" stroke-width="2.79324" stroke-linecap="round"/>
<path d="M14.2353 19.6522C11.8248 18.246 7.00371 16.8196 7.00363 22.3641C7.00354 29.2948 6.70179 55.2094 14.2353 49.4841C20.2621 44.9038 25.3849 40.5446 27.193 38.9375" stroke="white" stroke-width="2.79324" stroke-linecap="round"/>
<path d="M102.105 17.7424C104.515 16.3362 109.336 14.9098 109.336 20.4544C109.336 27.385 109.638 53.2996 102.105 47.5743C96.0777 42.994 90.9549 38.6348 89.1469 37.0277" stroke="white" stroke-width="2.79324" stroke-linecap="round"/>
</svg>
