<svg width="199" height="136" viewBox="0 0 199 136" fill="none" xmlns="http://www.w3.org/2000/svg">
<path d="M196.735 108.951C191.438 123.784 177.264 134.398 160.612 134.398C139.434 134.398 122.266 117.23 122.266 96.0521C122.266 74.874 139.434 57.7057 160.612 57.7057C178.008 57.7057 192.699 69.2897 197.391 85.1648" stroke="white" stroke-width="3" stroke-linecap="round"/>
<circle cx="13.8775" cy="13.8775" r="12.3775" transform="matrix(1 0 0 -1 146.746 96.0525)" stroke="white" stroke-width="3"/>
<circle cx="7.58754" cy="7.58754" r="6.08754" transform="matrix(1 0 0 -1 153.035 87.9131)" stroke="white" stroke-width="3"/>
<rect x="1.5" y="-1.5" width="55.9044" height="23.3644" rx="11.6822" transform="matrix(1 0 0 -1 131.17 56.3098)" stroke="white" stroke-width="3"/>
<circle cx="3.73902" cy="3.73902" r="3.73902" transform="matrix(1 0 0 -1 138.279 120.586)" fill="white"/>
<path d="M132.4 44.848C90.9283 44.2347 52.4936 33.1448 59.8054 17.6659C76.4472 -17.5642 139.041 71.8121 80.3802 80.0045C52.6009 83.8841 10.2663 59.6021 3.67883 49.6879" stroke="white" stroke-width="3" stroke-linecap="round"/>
</svg>
