<svg width="174" height="120" viewBox="0 0 174 120" fill="none" xmlns="http://www.w3.org/2000/svg">
<path d="M171.907 95.2708C167.277 108.236 154.887 117.515 140.331 117.515C121.818 117.515 106.811 102.508 106.811 83.9949C106.811 65.4822 121.818 50.4747 140.331 50.4747C155.538 50.4747 168.379 60.6008 172.481 74.4779" stroke="black" stroke-width="3" stroke-linecap="round"/>
<circle cx="12.1309" cy="12.1309" r="10.6309" transform="matrix(1 0 0 -1 128.211 83.9952)" stroke="black" stroke-width="3"/>
<circle cx="6.6326" cy="6.6326" r="5.1326" transform="matrix(1 0 0 -1 133.707 76.8803)" stroke="black" stroke-width="3"/>
<rect x="1.5" y="-1.5" width="48.4909" height="20.0463" rx="10.0231" transform="matrix(1 0 0 -1 114.596 48.8772)" stroke="black" stroke-width="3"/>
<circle cx="3.26844" cy="3.26844" r="3.26844" transform="matrix(1 0 0 -1 120.811 105.441)" fill="black"/>
<path d="M115.672 39.2354C79.419 38.6992 45.8216 29.005 52.2132 15.4742C66.7604 -15.3219 121.476 62.8058 70.1985 69.9671C45.9154 73.3584 8.90886 52.1326 3.15048 43.4661" stroke="black" stroke-width="3" stroke-linecap="round"/>
</svg>
