<svg width="347" height="475" viewBox="0 0 347 475" fill="none" xmlns="http://www.w3.org/2000/svg">
<path d="M130.279 39.5965C121.198 37.1067 102.509 38.6866 92.4249 61.1221C91.0418 64.1992 89.8204 67.6689 88.808 71.5739C86.3039 78.0904 81.3506 92.4971 81.5704 97.9923C81.649 99.9589 82.4034 104.639 83.6109 110.328C76.3484 111.276 76.9194 121.651 78.6487 129.128C79.0241 130.751 77.5022 132.227 76.0294 131.447C64.9505 125.583 68.6986 112.84 71.5011 106.301L92.4249 61.1221C92.4249 50.6217 102.858 29.8474 116.106 26.3779C126.704 23.6022 129.97 34.0338 130.279 39.5965C136.89 21.0739 158.936 17.9089 183.871 41.2713C188.896 38.4701 198.783 31.7654 201.619 25.6294C201.805 25.2266 202.512 25.2654 202.574 25.7048C203.697 33.6703 203.076 48.9241 192.95 58.9216C196.114 81.9658 175.728 109.787 171.516 115.402C166.125 122.591 188.589 145.251 171.516 154.265C157.858 161.476 150.999 153.825 149.277 149.098C158.185 152.945 165.226 143.482 156.69 129.779C149.861 118.817 162.306 110.328 166.799 87.9962C173.448 42.1927 145.223 36.645 130.279 39.5965Z" fill="black"/>
<path d="M37.7695 249.367C30.003 232.453 38.4167 214.993 43.5944 208.377C48.2686 211.325 57.6602 220.631 57.8327 229.95C71.1221 215.453 94.4359 212.26 104.432 212.476C103.051 228.354 117.232 239.658 124.495 243.326C128.522 243.901 137.526 243.801 141.323 238.796L133.772 275.686C133.053 278.491 132.046 284.445 133.772 285.826C135.498 287.207 163.399 311.858 177.135 324.011C166.564 317.683 142.315 307.745 129.889 318.618C117.462 329.491 105.87 351.913 101.627 361.765C100.98 351.05 95.9317 324.054 80.9165 301.79C65.9013 279.526 60.0103 267.698 58.9417 264.566C51.6582 264.165 42.943 260.633 37.7695 249.367Z" fill="black"/>
<path d="M130.279 39.5965C121.198 37.1067 102.509 38.6866 92.4249 61.1221M130.279 39.5965C129.97 34.0338 126.704 23.6022 116.106 26.3779C102.858 29.8474 92.4249 50.6217 92.4249 61.1221M130.279 39.5965C145.223 36.645 173.448 42.1927 166.799 87.9962C162.306 110.328 149.861 118.817 156.69 129.779C165.226 143.482 158.185 152.945 149.277 149.098C150.999 153.825 157.858 161.476 171.516 154.265C188.589 145.251 166.125 122.591 171.516 115.402C175.728 109.787 196.114 81.9658 192.95 58.9216M130.279 39.5965C136.89 21.0739 158.936 17.9089 183.871 41.2713M92.4249 61.1221C91.0418 64.1992 89.8204 67.6688 88.808 71.5739C86.3039 78.0904 81.3506 92.4971 81.5704 97.9923C81.649 99.9589 82.4034 104.639 83.6109 110.328M92.4249 61.1221L71.5011 106.301C68.6986 112.84 64.9505 125.583 76.0294 131.447C77.5022 132.227 79.0241 130.751 78.6487 129.128C76.9194 121.651 76.3484 111.276 83.6109 110.328M92.4249 61.1221C83.5142 63.7732 63.7567 69.1706 60.0114 70.6318C57.2074 71.7256 43.5894 76.744 36.8144 78.585M154.519 124.369C152.916 126.201 147.842 131.238 140.369 136.733C131.027 143.602 104.925 145.663 97.6437 145.251C92.4472 144.956 86.621 124.509 83.6109 110.328M183.871 41.2713C188.896 38.4701 198.783 31.7654 201.619 25.6294C201.805 25.2266 202.512 25.2654 202.574 25.7048C203.697 33.6703 203.076 48.9241 192.95 58.9216M183.871 41.2713C189.328 46.3842 192.063 52.4654 192.95 58.9216M116.776 26.2176C118.857 18.2248 125.794 3.11989 137.782 2.008C139.139 1.88214 140.025 3.26368 139.589 4.5552C136.889 12.5705 133.822 25.5661 138.18 28.5781M126.286 142.433C124.224 145.6 120.718 153.656 123.193 160.549C132.987 158.413 153.46 154.628 156.995 156.572C160.529 158.516 174.521 171.963 181.075 178.444C196.596 194.857 222.748 224.105 238.662 246.264M238.662 246.264C246.382 257.013 251.693 266.094 252.213 271.232C252.286 275.135 244.569 284.84 213.109 292.44C181.65 300.04 167.746 303.56 164.727 304.37L160.282 309.114M238.662 246.264C239.078 219.367 247.24 164.569 276.568 160.549C313.227 155.524 332.479 185.63 336.984 192.798L342.719 188.087C344.084 195.733 346.405 211.066 344.767 211.23C343.128 211.394 333.025 203.106 328.178 198.942M107.51 145.083C106.553 149.133 103.843 157.455 100.661 158.338C96.6849 159.443 90.499 152.594 89.6153 150.385C88.7316 148.176 72.3832 134.921 67.0811 132.49L36.8144 78.585M36.8144 78.585H26.8728M43.5944 208.377C38.4167 214.993 30.003 232.453 37.7695 249.367C42.943 260.633 51.6582 264.165 58.9417 264.566M43.5944 208.377C48.2686 211.325 57.6602 220.631 57.8327 229.95M43.5944 208.377C45.9281 205.504 52.2053 200.451 60.9099 199.532M57.8327 229.95C56.3945 244.117 61.414 272.321 92.9977 271.803C99.4698 271.803 119.965 267.704 124.495 243.326M57.8327 229.95C71.1221 215.453 94.4359 212.26 104.432 212.476C103.051 228.354 117.232 239.658 124.495 243.326M57.8327 229.95C59.8573 223.651 67.2773 208.864 80.7614 204.429M124.495 243.326C128.522 243.901 137.526 243.801 141.323 238.796M124.495 243.326C125.458 238.583 125.782 227.131 119.378 219.271M141.323 238.796L133.772 275.686C133.053 278.491 132.046 284.445 133.772 285.826M141.323 238.796C143.674 232.394 147.981 216.559 146.39 204.429C171.722 222.696 222.918 260.295 225.039 264.566M133.772 285.826C135.498 287.207 163.399 311.858 177.135 324.011M133.772 285.826L161.413 298.183L225.039 264.566M177.135 324.011C166.564 317.683 142.315 307.745 129.889 318.618C117.462 329.491 105.87 351.913 101.627 361.765M177.135 324.011C186.319 331.378 203.675 351.83 199.621 374.702C197.808 384.936 192.641 392.799 186.6 398.6M101.627 361.765C100.98 351.05 95.9317 324.054 80.9165 301.79C65.9013 279.526 60.0103 267.698 58.9417 264.566M101.627 361.765L93.9497 379.949L52.4541 472.986M58.9417 264.566C62.5923 264.767 65.8832 264.182 68.1881 263.389M171.965 408.599C169.311 409.842 166.874 410.718 164.88 411.253M171.965 408.599L164.88 422.29C156.287 436.28 139.784 466.004 134.299 472.986M171.965 408.599C176.585 406.433 181.862 403.15 186.6 398.6M186.6 398.6V415.776L183.568 472.986M60.9099 199.532C62.666 199.346 64.5209 199.329 66.4622 199.532M60.9099 199.532C61.9356 196.11 63.3715 188.075 60.9099 183.303C57.8327 177.338 0.801388 87.201 2.12693 71.5154C1.53773 67.0969 2.70113 57.7297 12.0683 55.6089C21.4354 53.488 74.2952 44.2682 99.5541 39.9233M225.039 264.566H232.771M171.5 319.027C185.563 321.895 217.177 319.652 228.646 288.03" stroke="white" stroke-width="3" stroke-linecap="round"/>
</svg>
