<svg width="30" height="30" viewBox="0 0 30 30" fill="none" xmlns="http://www.w3.org/2000/svg">
<rect width="30" height="30" rx="10" fill="white"/>
<path fill-rule="evenodd" clip-rule="evenodd" d="M10.7897 12.3369V21.3333H8.15571V12.3369H10.7897ZM10.963 9.55442C10.963 10.4178 10.3912 11.1086 9.47271 11.1086H9.45554C8.57159 11.1086 8 10.4178 8 9.55442C8 8.67166 8.58911 8 9.49014 8C10.3913 8 10.9458 8.67166 10.963 9.55442ZM15.6001 21.3333H12.4454C12.4454 21.3333 12.4869 12.8073 12.4455 11.9245H15.6001V13.2566C15.593 13.2675 15.586 13.2783 15.5791 13.289H15.6001V13.2566C16.0194 12.6155 16.7697 11.7037 18.4432 11.7037C20.5187 11.7037 22.075 13.0484 22.075 15.9384V21.3333H18.9206V16.2998C18.9206 15.035 18.464 14.1721 17.3225 14.1721C16.451 14.1721 15.9319 14.754 15.7039 15.3159C15.6206 15.5169 15.6001 15.7978 15.6001 16.079V21.3333Z" fill="#1A9EFE"/>
</svg>
