<svg width="29" height="27" viewBox="0 0 29 27" fill="none" xmlns="http://www.w3.org/2000/svg">
<path fill-rule="evenodd" clip-rule="evenodd" d="M5.57947 8.67428V26.6672H0.311417V8.67428H5.57947ZM5.92593 3.10933C5.92593 4.836 4.7825 6.21765 2.94542 6.21765H2.91108C1.14318 6.21765 0 4.836 0 3.10933C0 1.3438 1.17823 0.000488281 2.98027 0.000488281C4.7825 0.000488281 5.89169 1.3438 5.92593 3.10933ZM15.198 26.667H8.88867C8.88867 26.667 8.97164 9.61503 8.88884 7.8493H15.1981V10.5135C15.1839 10.5353 15.1699 10.5569 15.156 10.5784H15.1981V10.5135C16.0366 9.2313 17.5373 7.40773 20.8842 7.40773C25.0352 7.40773 28.1479 10.0972 28.1479 15.8772V26.667H21.8391V16.6C21.8391 14.0703 20.9259 12.3446 18.6428 12.3446C16.8998 12.3446 15.8617 13.5084 15.4056 14.6321C15.239 15.0341 15.198 15.596 15.198 16.1584V26.667Z" fill="white"/>
</svg>
