<svg width="247" height="176" viewBox="0 0 247 176" fill="none" xmlns="http://www.w3.org/2000/svg">
<path d="M47.0285 121.396C38.7366 124.994 20.5345 127.542 14.0615 108.951C5.97027 85.713 70.8822 32.7928 86.5538 40.3654C102.225 47.938 103.842 54.4229 110.33 52.8052C116.819 51.1874 123.867 24.1742 136.844 20.9388C149.821 17.7033 231.965 52.3261 234.653 72.3198C237.34 92.3136 187.085 65.8119 161.132 72.2828C135.178 78.7538 90.2447 101.437 67.0533 91.1472C50.9207 83.9894 54.5877 108.031 57.8214 121.001" stroke="white" stroke-width="3" stroke-linecap="round"/>
<path d="M67.6013 58.8669C71.388 55.6268 81.1227 50.4445 89.7683 55.6361" stroke="white" stroke-width="3" stroke-linecap="round"/>
<path d="M40.5057 143.686C50.7901 126.581 78.6004 95.6155 107.566 108.598C112.739 110.916 116.235 111.011 118.919 108.063C124.33 102.122 153.552 62.6928 200.567 85.4105C245.119 106.938 225.967 95.1494 201.631 108.105C177.294 121.061 129.677 178.853 54.0214 142.612" stroke="white" stroke-width="3" stroke-linecap="round"/>
</svg>
