<svg width="228" height="128" viewBox="0 0 228 128" fill="none" xmlns="http://www.w3.org/2000/svg">
<path d="M31.3417 77.6731C22.4083 79.162 4.09473 77.2264 2.30804 57.5728C0.0746812 33.0059 76.0089 -2.7279 89.4091 8.4389C102.809 19.6057 102.809 26.3058 109.509 26.3058C116.209 26.3058 129.609 1.73883 143.009 1.73883C156.41 1.73883 227.877 55.3395 225.644 75.4397C223.41 95.54 180.977 57.5728 154.176 57.5728C127.376 57.5728 78.194 68.7397 58.1418 53.1061C44.1928 42.231 41.9303 66.5063 41.9303 79.9065" stroke="white" stroke-width="3" stroke-linecap="round"/>
<path d="M66.5 21.8396C70.9667 19.6062 81.6869 16.9262 88.8336 24.073" stroke="white" stroke-width="3" stroke-linecap="round"/>
<path d="M19.5977 97.7735C33.7423 83.6288 68.2849 60.253 93.2986 79.9066C97.7653 83.4161 101.141 84.356 104.465 82.1398C111.165 77.673 149.133 46.4062 189.333 79.9066C227.428 111.652 211.667 95.5401 184.866 102.24C158.066 108.94 97.7653 153.607 32.9978 100.007" stroke="white" stroke-width="3" stroke-linecap="round"/>
</svg>
