<svg width="228" height="128" viewBox="0 0 228 128" fill="none" xmlns="http://www.w3.org/2000/svg">
<path d="M31.3417 77.6733C22.4083 79.1622 4.09473 77.2266 2.30804 57.573C0.0746812 33.0061 76.0089 -2.72772 89.4091 8.43909C102.809 19.6059 102.809 26.306 109.509 26.306C116.209 26.306 129.609 1.73901 143.009 1.73901C156.41 1.73901 227.877 55.3397 225.644 75.4399C223.41 95.5402 180.977 57.573 154.176 57.573C127.376 57.573 78.194 68.7398 58.1418 53.1063C44.1928 42.2312 41.9303 66.5065 41.9303 79.9066" stroke="#FC56F5" stroke-width="3" stroke-linecap="round"/>
<path d="M66.5 21.8397C70.9667 19.6064 81.6869 16.9264 88.8336 24.0731" stroke="#FC56F5" stroke-width="3" stroke-linecap="round"/>
<path d="M19.5977 97.7737C33.7423 83.629 68.2849 60.2532 93.2986 79.9068C97.7653 83.4163 101.141 84.3562 104.465 82.14C111.165 77.6732 149.133 46.4064 189.333 79.9068C227.428 111.653 211.667 95.5403 184.866 102.24C158.066 108.94 97.7653 153.608 32.9978 100.007" stroke="#FC56F5" stroke-width="3" stroke-linecap="round"/>
</svg>
