<svg width="1017" height="179" viewBox="0 0 1017 179" fill="none" xmlns="http://www.w3.org/2000/svg">
<path fill-rule="evenodd" clip-rule="evenodd" d="M486.23 3.96001C486.23 2.86 487.122 1.96826 488.222 1.96826H509.603C510.703 1.96826 511.595 2.85999 511.595 3.96001V132.932C511.595 134.032 510.703 134.924 509.603 134.924H491.277C490.228 134.924 489.378 134.074 489.378 133.024C489.378 131.454 487.561 130.538 486.226 131.365C479.416 135.584 471.456 137.694 462.347 137.694C453.337 137.694 445.314 135.417 438.278 130.862C431.304 126.245 425.874 119.936 421.986 111.934C418.159 103.932 416.246 94.9758 416.246 85.0657C416.246 74.9709 418.19 65.9225 422.078 57.9205C426.028 49.9186 431.582 43.6709 438.741 39.1774C445.962 34.684 454.262 32.4373 463.643 32.4373C470.872 32.4373 477.356 33.8799 483.095 36.7652C484.494 37.4684 486.23 36.4973 486.23 34.9316V3.96001ZM466.42 115.35C481.725 115.35 489.378 105.255 489.378 85.0657C489.378 75.5864 487.588 68.1692 484.009 62.8141C480.491 57.4589 474.937 54.7813 467.346 54.7813C461.915 54.7813 457.379 56.1355 453.738 58.8438C450.096 61.4907 447.381 65.0915 445.591 69.6465C443.802 74.2015 442.907 79.3412 442.907 85.0657C442.907 93.991 444.882 101.285 448.831 106.948C452.781 112.549 458.644 115.35 466.42 115.35ZM0 133.081C0 134.181 0.891738 135.073 1.99175 135.073H23.2115C24.3115 135.073 25.2032 134.181 25.2032 133.081V83.0838C25.2032 81.9838 26.0949 81.0921 27.1949 81.0921H68.429C69.529 81.0921 70.4207 80.2004 70.4207 79.1003V57.9421C70.4207 56.8421 69.529 55.9504 68.429 55.9504H27.195C26.0949 55.9504 25.2032 55.0587 25.2032 53.9586V29.1031C25.2032 28.0031 26.0949 27.1114 27.195 27.1114H79.548C80.648 27.1114 81.5398 26.2197 81.5398 25.1196V3.96145C81.5398 2.86144 80.648 1.9697 79.548 1.9697H1.99175C0.891737 1.9697 0 2.86143 0 3.96145V133.081ZM159.826 5.24585C159.081 5.24585 158.477 5.85702 158.477 6.61094V27.0873C158.477 27.8412 159.081 28.4524 159.826 28.4524H182.772C183.518 28.4524 184.122 27.8412 184.122 27.0873V6.61094C184.122 5.85702 183.518 5.24585 182.772 5.24585H159.826ZM183.407 133.05C183.407 133.804 182.803 134.415 182.057 134.415H160.374C159.629 134.415 159.024 133.804 159.024 133.05V37.8715C159.024 37.1176 159.629 36.5064 160.374 36.5064H182.057C182.803 36.5064 183.407 37.1176 183.407 37.8715V133.05ZM124.267 39.8989C129.867 36.4665 136.513 34.7502 144.206 34.7502C145.626 34.7502 146.962 34.8068 148.212 34.9198C149.2 35.009 149.929 35.8548 149.929 36.8464V55.7389C149.929 57.0893 148.604 58.065 147.269 57.859C145.941 57.654 144.458 57.5515 142.821 57.5515C138.144 57.5515 133.99 58.4096 130.359 60.1258C125.928 62.1485 122.544 65.1519 120.205 69.136C117.866 73.12 116.697 77.9622 116.697 83.6625V132.422C116.697 133.522 115.805 134.414 114.705 134.414H93.396C92.296 134.414 91.4043 133.522 91.4043 132.422V37.1098C91.4043 36.0098 92.296 35.118 93.396 35.118H111.567C112.667 35.118 113.559 36.0098 113.559 37.1098V43.4561C113.559 45.5095 116.618 46.4136 118.013 44.9066C119.874 42.8954 121.959 41.2262 124.267 39.8989ZM395.466 41.0509C389.716 35.1026 380.968 32.1284 369.222 32.1284C362.236 32.1284 356.022 33.2936 350.582 35.6238C346.818 37.1937 343.453 39.2187 340.488 41.6987C339.089 42.8683 336.764 41.9334 336.764 40.1104V37.0637C336.764 35.9636 335.873 35.0719 334.772 35.0719H316.314C315.214 35.0719 314.322 35.9636 314.322 37.0637V132.423C314.322 133.523 315.214 134.415 316.314 134.415H337.926C339.026 134.415 339.917 133.523 339.917 132.423V84.0073C339.917 73.0306 342.019 65.5799 346.223 61.6553C350.427 57.6693 355.435 55.6763 361.246 55.6763C367.738 55.6763 372.56 57.516 375.713 61.1953C378.928 64.8747 380.906 68.922 381.648 73.3372C382.39 77.7524 382.761 82.4743 382.761 87.5027V132.423C382.761 133.523 383.653 134.415 384.753 134.415H406.364C407.464 134.415 408.356 133.523 408.356 132.423V78.6723C408.356 72.7853 407.645 66.5304 406.223 59.9076C404.863 53.2847 401.277 46.9991 395.466 41.0509ZM534.271 128.571C542.077 134.215 552.3 137.037 564.939 137.037C573.613 137.037 581.109 135.749 587.429 133.172C593.748 130.534 598.581 126.761 601.927 121.853C605.272 116.884 606.945 111.025 606.945 104.276C606.945 99.0615 605.892 94.6443 603.785 91.0246C601.679 87.4049 598.333 84.3067 593.748 81.73C589.164 79.092 583.03 76.7914 575.347 74.8281C567.169 72.8036 561.283 71.2085 557.69 70.0428C554.096 68.8158 551.68 67.6502 550.441 66.5459C549.202 65.3802 548.582 63.9078 548.582 62.1287C548.582 59.4906 549.79 57.4047 552.207 55.8709C554.685 54.3372 557.969 53.5703 562.058 53.5703L564.009 53.6623C568.78 54.0304 572.559 55.2881 575.347 57.4354C577.589 59.162 579.07 61.3845 579.79 64.1028C580.083 65.2108 581.132 66.0083 582.26 65.8073L604.116 61.9149C605.174 61.7263 605.899 60.729 605.684 59.6752C604.629 54.5147 602.417 49.9644 599.046 46.0242C595.328 41.5457 590.403 38.1101 584.269 35.7174C578.197 33.3247 571.258 32.1284 563.452 32.1284C555.398 32.1284 548.365 33.4168 542.356 35.9935C536.346 38.5088 531.699 42.1285 528.416 46.8525C525.132 51.5764 523.49 57.0979 523.49 63.417C523.49 68.5704 524.574 72.9263 526.743 76.4846C528.911 80.0429 532.412 83.1104 537.244 85.6871C542.077 88.2638 548.644 90.5951 556.946 92.6811C564.629 94.7056 570.05 96.27 573.21 97.3743C576.432 98.4786 578.538 99.6136 579.529 100.779C580.583 101.884 581.109 103.479 581.109 105.565C581.109 108.693 579.839 111.147 577.299 112.927C574.821 114.644 571.32 115.503 566.797 115.503C561.221 115.503 556.606 114.215 552.95 111.638C549.825 109.344 547.66 106.26 546.456 102.388C546.146 101.39 545.179 100.715 544.145 100.87L522.135 104.162C521.039 104.326 520.283 105.355 520.505 106.441C522.435 115.913 527.024 123.289 534.271 128.571Z" fill="white"/>
<path fill-rule="evenodd" clip-rule="evenodd" d="M657.016 129.771C666.791 135.489 678.266 138.349 691.443 138.349C704.62 138.349 716.096 135.489 725.871 129.771C735.645 123.991 743.131 115.875 748.327 105.422C753.586 94.9686 756.215 82.8861 756.215 69.1743C756.215 55.4624 753.586 43.38 748.327 32.927C743.131 22.4739 735.645 14.3882 725.871 8.66984C716.096 2.88995 704.62 0 691.443 0C678.266 0 666.791 2.88995 657.016 8.66984C647.242 14.3882 639.725 22.4739 634.467 32.927C629.27 43.38 626.672 55.4624 626.672 69.1743C626.672 82.8861 629.27 94.9686 634.467 105.422C639.725 115.875 647.242 123.991 657.016 129.771ZM712.786 109.111C707.219 112.862 700.352 114.737 692.186 114.737C679.442 114.737 669.791 110.71 663.233 102.655C656.676 94.5997 653.397 83.4395 653.397 69.1743C653.397 59.951 654.789 51.9268 657.573 45.1016C660.357 38.2764 664.533 32.9884 670.1 29.2377C675.668 25.4869 682.535 23.6115 690.701 23.6115C703.445 23.6115 713.096 27.639 719.653 35.6939C726.211 43.7489 729.49 54.909 729.49 69.1743C729.49 78.3975 728.098 86.4217 725.314 93.2469C722.53 100.072 718.354 105.36 712.786 109.111ZM847.88 41.7061C842.13 35.7578 833.382 32.7837 821.636 32.7837C814.65 32.7837 808.436 33.9488 802.996 36.2791C799.232 37.849 795.867 39.8739 792.902 42.3539C791.503 43.5235 789.178 42.5887 789.178 40.7657V37.7189C789.178 36.6189 788.287 35.7272 787.187 35.7272H768.728C767.628 35.7272 766.736 36.6189 766.736 37.7189V133.078C766.736 134.178 767.628 135.07 768.728 135.07H790.34C791.44 135.07 792.331 134.178 792.331 133.078V84.6626C792.331 73.6859 794.433 66.2352 798.637 62.3105C802.841 58.3246 807.849 56.3316 813.66 56.3316C820.152 56.3316 824.974 58.1712 828.127 61.8506C831.342 65.53 833.32 69.5773 834.062 73.9925C834.804 78.4077 835.175 83.1295 835.175 88.158V133.078C835.175 134.178 836.067 135.07 837.167 135.07H858.778C859.878 135.07 860.77 134.178 860.77 133.078V79.3276C860.77 73.4406 860.059 67.1857 858.637 60.5628C857.277 53.94 853.691 47.6544 847.88 41.7061ZM902.853 133.734C902.853 134.834 901.961 135.726 900.861 135.726H879.859C878.759 135.726 877.867 134.834 877.867 133.734V1.99175C877.867 0.891737 878.759 0 879.859 0H900.861C901.961 0 902.853 0.891734 902.853 1.99175V133.734ZM994.064 35.4062C993.241 35.4062 992.503 35.9122 992.206 36.6797L968.39 98.2736C967.734 99.9694 965.336 99.9722 964.676 98.2781L940.687 36.6753C940.389 35.9101 939.652 35.4062 938.831 35.4062H917.003C915.587 35.4062 914.623 36.8434 915.161 38.154L954.185 133.273C954.374 133.734 954.384 134.248 954.213 134.715L938.949 176.322C938.472 177.622 939.434 179 940.819 179H959.988C960.806 179 961.541 178.5 961.841 177.739L1016.86 38.1282C1017.37 36.8213 1016.41 35.4062 1015 35.4062H994.064Z" fill="white"/>
<path fill-rule="evenodd" clip-rule="evenodd" d="M289.559 44.2172C281.901 33.6637 270.625 26.3962 257.939 23.8998C244.532 21.2617 230.648 24.1674 219.341 31.9779C208.034 39.7883 200.229 51.8635 197.644 65.5471C196.451 71.8705 196.416 78.2983 197.48 84.5224C197.694 85.778 196.897 87.0001 195.668 87.2209L193.813 87.5549C192.619 87.7695 191.821 88.9319 192.048 90.1471C195.26 107.346 201.156 123.214 213.12 133.677C225.593 144.587 243.641 148.728 258.165 146.115C278.391 142.474 288.26 133.309 296.325 118.703C304.062 104.693 304.285 87.7243 301.54 70.4414C301.346 69.2205 300.206 68.4069 299.013 68.6217L246.413 78.0884L223.785 82.1606C222.659 82.3636 221.56 81.6504 221.354 80.5024C220.751 77.1345 220.755 73.6494 221.403 70.2222C222.773 62.9698 226.909 56.57 232.901 52.4304C238.894 48.2909 246.253 46.7509 253.358 48.1491C259.743 49.4054 265.452 52.9414 269.488 58.0835C270.246 59.0489 271.603 59.324 272.607 58.6308L289.011 47.3001C290.014 46.6068 290.28 45.2111 289.559 44.2172ZM242.134 108.088C241.319 103.367 244.407 98.8654 249.032 98.0329L250.765 97.7208C255.39 96.889 259.8 100.041 260.616 104.762C261.224 108.28 259.663 111.677 256.913 113.524C256.834 113.577 256.801 113.681 256.838 113.771L260.843 123.62C260.89 123.738 260.819 123.871 260.696 123.894L248.47 126.093C248.347 126.115 248.236 126.016 248.241 125.888L248.704 115.234C248.708 115.137 248.643 115.051 248.55 115.028C245.348 114.254 242.742 111.606 242.134 108.088Z" fill="#1A9EFE"/>
<path fill-rule="evenodd" clip-rule="evenodd" d="M289.559 44.2172C281.901 33.6637 270.625 26.3962 257.939 23.8998C244.532 21.2617 230.648 24.1674 219.341 31.9779C208.034 39.7883 200.229 51.8635 197.644 65.5471C196.451 71.8705 196.416 78.2983 197.48 84.5224C197.694 85.778 196.897 87.0001 195.668 87.2209L193.813 87.5549C192.619 87.7695 191.821 88.9319 192.048 90.1471C195.26 107.346 201.156 123.214 213.12 133.677C225.593 144.587 243.641 148.728 258.165 146.115C278.391 142.474 288.26 133.309 296.325 118.703C304.062 104.693 304.285 87.7243 301.54 70.4414C301.346 69.2205 300.206 68.4069 299.013 68.6217L246.413 78.0884L223.785 82.1606C222.659 82.3636 221.56 81.6504 221.354 80.5024C220.751 77.1345 220.755 73.6494 221.403 70.2222C222.773 62.9698 226.909 56.57 232.901 52.4304C238.894 48.2909 246.253 46.7509 253.358 48.1491C259.743 49.4054 265.452 52.9414 269.488 58.0835C270.246 59.0489 271.603 59.324 272.607 58.6308L289.011 47.3001C290.014 46.6068 290.28 45.2111 289.559 44.2172ZM242.134 108.088C241.319 103.367 244.407 98.8654 249.032 98.0329L250.765 97.7208C255.39 96.889 259.8 100.041 260.616 104.762C261.224 108.28 259.663 111.677 256.913 113.524C256.834 113.577 256.801 113.681 256.838 113.771L260.843 123.62C260.89 123.738 260.819 123.871 260.696 123.894L248.47 126.093C248.347 126.115 248.236 126.016 248.241 125.888L248.704 115.234C248.708 115.137 248.643 115.051 248.55 115.028C245.348 114.254 242.742 111.606 242.134 108.088Z" fill="url(#paint0_radial_1064_58686)"/>
<path fill-rule="evenodd" clip-rule="evenodd" d="M289.559 44.2172C281.901 33.6637 270.625 26.3962 257.939 23.8998C244.532 21.2617 230.648 24.1674 219.341 31.9779C208.034 39.7883 200.229 51.8635 197.644 65.5471C196.451 71.8705 196.416 78.2983 197.48 84.5224C197.694 85.778 196.897 87.0001 195.668 87.2209L193.813 87.5549C192.619 87.7695 191.821 88.9319 192.048 90.1471C195.26 107.346 201.156 123.214 213.12 133.677C225.593 144.587 243.641 148.728 258.165 146.115C278.391 142.474 288.26 133.309 296.325 118.703C304.062 104.693 304.285 87.7243 301.54 70.4414C301.346 69.2205 300.206 68.4069 299.013 68.6217L246.413 78.0884L223.785 82.1606C222.659 82.3636 221.56 81.6504 221.354 80.5024C220.751 77.1345 220.755 73.6494 221.403 70.2222C222.773 62.9698 226.909 56.57 232.901 52.4304C238.894 48.2909 246.253 46.7509 253.358 48.1491C259.743 49.4054 265.452 52.9414 269.488 58.0835C270.246 59.0489 271.603 59.324 272.607 58.6308L289.011 47.3001C290.014 46.6068 290.28 45.2111 289.559 44.2172ZM242.134 108.088C241.319 103.367 244.407 98.8654 249.032 98.0329L250.765 97.7208C255.39 96.889 259.8 100.041 260.616 104.762C261.224 108.28 259.663 111.677 256.913 113.524C256.834 113.577 256.801 113.681 256.838 113.771L260.843 123.62C260.89 123.738 260.819 123.871 260.696 123.894L248.47 126.093C248.347 126.115 248.236 126.016 248.241 125.888L248.704 115.234C248.708 115.137 248.643 115.051 248.55 115.028C245.348 114.254 242.742 111.606 242.134 108.088Z" fill="url(#paint1_radial_1064_58686)"/>
<path fill-rule="evenodd" clip-rule="evenodd" d="M289.559 44.2172C281.901 33.6637 270.625 26.3962 257.939 23.8998C244.532 21.2617 230.648 24.1674 219.341 31.9779C208.034 39.7883 200.229 51.8635 197.644 65.5471C196.451 71.8705 196.416 78.2983 197.48 84.5224C197.694 85.778 196.897 87.0001 195.668 87.2209L193.813 87.5549C192.619 87.7695 191.821 88.9319 192.048 90.1471C195.26 107.346 201.156 123.214 213.12 133.677C225.593 144.587 243.641 148.728 258.165 146.115C278.391 142.474 288.26 133.309 296.325 118.703C304.062 104.693 304.285 87.7243 301.54 70.4414C301.346 69.2205 300.206 68.4069 299.013 68.6217L246.413 78.0884L223.785 82.1606C222.659 82.3636 221.56 81.6504 221.354 80.5024C220.751 77.1345 220.755 73.6494 221.403 70.2222C222.773 62.9698 226.909 56.57 232.901 52.4304C238.894 48.2909 246.253 46.7509 253.358 48.1491C259.743 49.4054 265.452 52.9414 269.488 58.0835C270.246 59.0489 271.603 59.324 272.607 58.6308L289.011 47.3001C290.014 46.6068 290.28 45.2111 289.559 44.2172ZM242.134 108.088C241.319 103.367 244.407 98.8654 249.032 98.0329L250.765 97.7208C255.39 96.889 259.8 100.041 260.616 104.762C261.224 108.28 259.663 111.677 256.913 113.524C256.834 113.577 256.801 113.681 256.838 113.771L260.843 123.62C260.89 123.738 260.819 123.871 260.696 123.894L248.47 126.093C248.347 126.115 248.236 126.016 248.241 125.888L248.704 115.234C248.708 115.137 248.643 115.051 248.55 115.028C245.348 114.254 242.742 111.606 242.134 108.088Z" fill="url(#paint2_radial_1064_58686)"/>
<path fill-rule="evenodd" clip-rule="evenodd" d="M289.559 44.2172C281.901 33.6637 270.625 26.3962 257.939 23.8998C244.532 21.2617 230.648 24.1674 219.341 31.9779C208.034 39.7883 200.229 51.8635 197.644 65.5471C196.451 71.8705 196.416 78.2983 197.48 84.5224C197.694 85.778 196.897 87.0001 195.668 87.2209L193.813 87.5549C192.619 87.7695 191.821 88.9319 192.048 90.1471C195.26 107.346 201.156 123.214 213.12 133.677C225.593 144.587 243.641 148.728 258.165 146.115C278.391 142.474 288.26 133.309 296.325 118.703C304.062 104.693 304.285 87.7243 301.54 70.4414C301.346 69.2205 300.206 68.4069 299.013 68.6217L246.413 78.0884L223.785 82.1606C222.659 82.3636 221.56 81.6504 221.354 80.5024C220.751 77.1345 220.755 73.6494 221.403 70.2222C222.773 62.9698 226.909 56.57 232.901 52.4304C238.894 48.2909 246.253 46.7509 253.358 48.1491C259.743 49.4054 265.452 52.9414 269.488 58.0835C270.246 59.0489 271.603 59.324 272.607 58.6308L289.011 47.3001C290.014 46.6068 290.28 45.2111 289.559 44.2172ZM242.134 108.088C241.319 103.367 244.407 98.8654 249.032 98.0329L250.765 97.7208C255.39 96.889 259.8 100.041 260.616 104.762C261.224 108.28 259.663 111.677 256.913 113.524C256.834 113.577 256.801 113.681 256.838 113.771L260.843 123.62C260.89 123.738 260.819 123.871 260.696 123.894L248.47 126.093C248.347 126.115 248.236 126.016 248.241 125.888L248.704 115.234C248.708 115.137 248.643 115.051 248.55 115.028C245.348 114.254 242.742 111.606 242.134 108.088Z" fill="url(#paint3_radial_1064_58686)"/>
<path fill-rule="evenodd" clip-rule="evenodd" d="M289.559 44.2172C281.901 33.6637 270.625 26.3962 257.939 23.8998C244.532 21.2617 230.648 24.1674 219.341 31.9779C208.034 39.7883 200.229 51.8635 197.644 65.5471C196.451 71.8705 196.416 78.2983 197.48 84.5224C197.694 85.778 196.897 87.0001 195.668 87.2209L193.813 87.5549C192.619 87.7695 191.821 88.9319 192.048 90.1471C195.26 107.346 201.156 123.214 213.12 133.677C225.593 144.587 243.641 148.728 258.165 146.115C278.391 142.474 288.26 133.309 296.325 118.703C304.062 104.693 304.285 87.7243 301.54 70.4414C301.346 69.2205 300.206 68.4069 299.013 68.6217L246.413 78.0884L223.785 82.1606C222.659 82.3636 221.56 81.6504 221.354 80.5024C220.751 77.1345 220.755 73.6494 221.403 70.2222C222.773 62.9698 226.909 56.57 232.901 52.4304C238.894 48.2909 246.253 46.7509 253.358 48.1491C259.743 49.4054 265.452 52.9414 269.488 58.0835C270.246 59.0489 271.603 59.324 272.607 58.6308L289.011 47.3001C290.014 46.6068 290.28 45.2111 289.559 44.2172ZM242.134 108.088C241.319 103.367 244.407 98.8654 249.032 98.0329L250.765 97.7208C255.39 96.889 259.8 100.041 260.616 104.762C261.224 108.28 259.663 111.677 256.913 113.524C256.834 113.577 256.801 113.681 256.838 113.771L260.843 123.62C260.89 123.738 260.819 123.871 260.696 123.894L248.47 126.093C248.347 126.115 248.236 126.016 248.241 125.888L248.704 115.234C248.708 115.137 248.643 115.051 248.55 115.028C245.348 114.254 242.742 111.606 242.134 108.088Z" fill="url(#paint4_radial_1064_58686)"/>
<path fill-rule="evenodd" clip-rule="evenodd" d="M289.559 44.2172C281.901 33.6637 270.625 26.3962 257.939 23.8998C244.532 21.2617 230.648 24.1674 219.341 31.9779C208.034 39.7883 200.229 51.8635 197.644 65.5471C196.451 71.8705 196.416 78.2983 197.48 84.5224C197.694 85.778 196.897 87.0001 195.668 87.2209L193.813 87.5549C192.619 87.7695 191.821 88.9319 192.048 90.1471C195.26 107.346 201.156 123.214 213.12 133.677C225.593 144.587 243.641 148.728 258.165 146.115C278.391 142.474 288.26 133.309 296.325 118.703C304.062 104.693 304.285 87.7243 301.54 70.4414C301.346 69.2205 300.206 68.4069 299.013 68.6217L246.413 78.0884L223.785 82.1606C222.659 82.3636 221.56 81.6504 221.354 80.5024C220.751 77.1345 220.755 73.6494 221.403 70.2222C222.773 62.9698 226.909 56.57 232.901 52.4304C238.894 48.2909 246.253 46.7509 253.358 48.1491C259.743 49.4054 265.452 52.9414 269.488 58.0835C270.246 59.0489 271.603 59.324 272.607 58.6308L289.011 47.3001C290.014 46.6068 290.28 45.2111 289.559 44.2172ZM242.134 108.088C241.319 103.367 244.407 98.8654 249.032 98.0329L250.765 97.7208C255.39 96.889 259.8 100.041 260.616 104.762C261.224 108.28 259.663 111.677 256.913 113.524C256.834 113.577 256.801 113.681 256.838 113.771L260.843 123.62C260.89 123.738 260.819 123.871 260.696 123.894L248.47 126.093C248.347 126.115 248.236 126.016 248.241 125.888L248.704 115.234C248.708 115.137 248.643 115.051 248.55 115.028C245.348 114.254 242.742 111.606 242.134 108.088Z" fill="url(#paint5_radial_1064_58686)"/>
<path fill-rule="evenodd" clip-rule="evenodd" d="M289.559 44.2172C281.901 33.6637 270.625 26.3962 257.939 23.8998C244.532 21.2617 230.648 24.1674 219.341 31.9779C208.034 39.7883 200.229 51.8635 197.644 65.5471C196.451 71.8705 196.416 78.2983 197.48 84.5224C197.694 85.778 196.897 87.0001 195.668 87.2209L193.813 87.5549C192.619 87.7695 191.821 88.9319 192.048 90.1471C195.26 107.346 201.156 123.214 213.12 133.677C225.593 144.587 243.641 148.728 258.165 146.115C278.391 142.474 288.26 133.309 296.325 118.703C304.062 104.693 304.285 87.7243 301.54 70.4414C301.346 69.2205 300.206 68.4069 299.013 68.6217L246.413 78.0884L223.785 82.1606C222.659 82.3636 221.56 81.6504 221.354 80.5024C220.751 77.1345 220.755 73.6494 221.403 70.2222C222.773 62.9698 226.909 56.57 232.901 52.4304C238.894 48.2909 246.253 46.7509 253.358 48.1491C259.743 49.4054 265.452 52.9414 269.488 58.0835C270.246 59.0489 271.603 59.324 272.607 58.6308L289.011 47.3001C290.014 46.6068 290.28 45.2111 289.559 44.2172ZM242.134 108.088C241.319 103.367 244.407 98.8654 249.032 98.0329L250.765 97.7208C255.39 96.889 259.8 100.041 260.616 104.762C261.224 108.28 259.663 111.677 256.913 113.524C256.834 113.577 256.801 113.681 256.838 113.771L260.843 123.62C260.89 123.738 260.819 123.871 260.696 123.894L248.47 126.093C248.347 126.115 248.236 126.016 248.241 125.888L248.704 115.234C248.708 115.137 248.643 115.051 248.55 115.028C245.348 114.254 242.742 111.606 242.134 108.088Z" fill="url(#paint6_radial_1064_58686)"/>
<path fill-rule="evenodd" clip-rule="evenodd" d="M289.559 44.2172C281.901 33.6637 270.625 26.3962 257.939 23.8998C244.532 21.2617 230.648 24.1674 219.341 31.9779C208.034 39.7883 200.229 51.8635 197.644 65.5471C196.451 71.8705 196.416 78.2983 197.48 84.5224C197.694 85.778 196.897 87.0001 195.668 87.2209L193.813 87.5549C192.619 87.7695 191.821 88.9319 192.048 90.1471C195.26 107.346 201.156 123.214 213.12 133.677C225.593 144.587 243.641 148.728 258.165 146.115C278.391 142.474 288.26 133.309 296.325 118.703C304.062 104.693 304.285 87.7243 301.54 70.4414C301.346 69.2205 300.206 68.4069 299.013 68.6217L246.413 78.0884L223.785 82.1606C222.659 82.3636 221.56 81.6504 221.354 80.5024C220.751 77.1345 220.755 73.6494 221.403 70.2222C222.773 62.9698 226.909 56.57 232.901 52.4304C238.894 48.2909 246.253 46.7509 253.358 48.1491C259.743 49.4054 265.452 52.9414 269.488 58.0835C270.246 59.0489 271.603 59.324 272.607 58.6308L289.011 47.3001C290.014 46.6068 290.28 45.2111 289.559 44.2172ZM242.134 108.088C241.319 103.367 244.407 98.8654 249.032 98.0329L250.765 97.7208C255.39 96.889 259.8 100.041 260.616 104.762C261.224 108.28 259.663 111.677 256.913 113.524C256.834 113.577 256.801 113.681 256.838 113.771L260.843 123.62C260.89 123.738 260.819 123.871 260.696 123.894L248.47 126.093C248.347 126.115 248.236 126.016 248.241 125.888L248.704 115.234C248.708 115.137 248.643 115.051 248.55 115.028C245.348 114.254 242.742 111.606 242.134 108.088Z" fill="white"/>
<defs>
<radialGradient id="paint0_radial_1064_58686" cx="0" cy="0" r="1" gradientUnits="userSpaceOnUse" gradientTransform="translate(218.452 34.0832) rotate(54.3821) scale(76.3702 68.1685)">
<stop stop-color="#F457EC"/>
<stop offset="1" stop-color="#F457EC" stop-opacity="0"/>
</radialGradient>
<radialGradient id="paint1_radial_1064_58686" cx="0" cy="0" r="1" gradientUnits="userSpaceOnUse" gradientTransform="translate(198.224 123.516) rotate(6.85491) scale(65.906 58.3071)">
<stop offset="0.364578" stop-color="#FF3838"/>
<stop offset="1" stop-color="#FF3838" stop-opacity="0"/>
</radialGradient>
<radialGradient id="paint2_radial_1064_58686" cx="0" cy="0" r="1" gradientUnits="userSpaceOnUse" gradientTransform="translate(206.51 46.0641) rotate(-178.237) scale(43.2781 38.2812)">
<stop stop-color="#FFB422"/>
<stop offset="1" stop-color="#FFB422" stop-opacity="0"/>
</radialGradient>
<radialGradient id="paint3_radial_1064_58686" cx="0" cy="0" r="1" gradientUnits="userSpaceOnUse" gradientTransform="translate(236.73 153.287) rotate(7.96296) scale(69.8861 61.8326)">
<stop offset="0.098942" stop-color="#F457EC"/>
<stop offset="1" stop-color="#F457EC" stop-opacity="0"/>
</radialGradient>
<radialGradient id="paint4_radial_1064_58686" cx="0" cy="0" r="1" gradientUnits="userSpaceOnUse" gradientTransform="translate(201.758 67.7265) rotate(93.8669) scale(52.3995 46.9865)">
<stop stop-color="#FFB422"/>
<stop offset="1" stop-color="#FFB422" stop-opacity="0"/>
</radialGradient>
<radialGradient id="paint5_radial_1064_58686" cx="0" cy="0" r="1" gradientUnits="userSpaceOnUse" gradientTransform="translate(190.06 82.1278) rotate(84.8452) scale(84.0853 75.3954)">
<stop offset="0.0148569" stop-color="#FFB422"/>
<stop offset="0.516112" stop-color="#FFB422" stop-opacity="0"/>
</radialGradient>
<radialGradient id="paint6_radial_1064_58686" cx="0" cy="0" r="1" gradientUnits="userSpaceOnUse" gradientTransform="translate(189.085 86.4845) rotate(79.7248) scale(56.6991 50.823)">
<stop offset="0.0406803" stop-color="#FFB422"/>
<stop offset="1" stop-color="#FFB422" stop-opacity="0"/>
</radialGradient>
</defs>
</svg>
