<svg width="123" height="171" viewBox="0 0 123 171" fill="none" xmlns="http://www.w3.org/2000/svg">
<path d="M66.4058 138.846C63.3708 135.551 54.6349 129.136 43.971 129.843M76.0139 137.725C78.2063 133.821 85.2261 125.57 95.7661 123.806M37.4907 97.4204C43.7178 99.9342 51.3705 94.3507 32.1642 51.9062M96.6111 92.5415C91.132 96.4195 82.3959 92.7459 91.2846 47.0273M72.6248 156.517C70.6391 156.536 65.992 157.715 63.2891 162.281C59.9105 167.988 39.0537 177.22 35.2795 154.068C31.5052 130.917 32.4822 130.166 31.2062 119.263C29.9302 108.36 34.7323 114.814 20.1301 93.7744C5.52796 72.7351 -2.80701 15.9958 4.97453 11.5902C15.0245 5.90063 49.8272 65.4473 51.9236 85.1811C52.894 89.9562 58.8276 87.2021 65.0993 86.1144C67.2118 85.6764 72.0968 85.3876 77.5156 87.0869C84.289 89.2112 72.9498 80.8177 93.1167 26.5858C113.284 -27.6461 119.357 24.2513 119.763 27.7179C120.168 31.1846 126.173 72.755 107.508 99.114C106.353 100.454 104.701 105.394 107.333 114.43C110.622 125.725 118.293 164.725 97.8174 165.871C94.8401 166.39 88.0115 166.331 84.5152 161.943C80.1449 156.458 76.0527 155.771 72.6248 156.517ZM40.0395 139.536C47.7977 138.041 61.933 138.228 63.183 149.981C63.2944 151.431 62.5564 154.432 58.7132 154.83C53.9092 155.328 45.9369 155.386 43.1637 149.8C41.3061 146.058 40.0074 142.572 39.3796 140.66C39.2151 140.16 39.5211 139.636 40.0395 139.536ZM101.197 133.156C93.3026 133.485 79.591 136.918 81.0884 148.641C81.315 150.078 82.726 152.829 86.5578 152.333C91.3474 151.712 99.1186 149.936 100.527 143.862C101.471 139.794 101.93 136.103 102.099 134.099C102.144 133.574 101.725 133.134 101.197 133.156Z" stroke="black" stroke-width="3" stroke-linecap="round"/>
</svg>
