<svg width="1021" height="359" viewBox="0 0 1021 359" fill="none" xmlns="http://www.w3.org/2000/svg">
    <mask id="path-1-outside-1_1064_60109" maskUnits="userSpaceOnUse" x="0" y="0" width="1021" height="359" fill="black">
        <rect fill="white" width="1021" height="359"/>
        <path d="M79.905 301.45H232.89V348.215H4L4.235 304.505L151.58 172.435C162.86 162.408 170.772 152.695 175.315 143.295C180.015 133.895 182.365 124.025 182.365 113.685C182.365 101.778 179.702 90.9683 174.375 81.255C169.048 71.385 161.607 63.7083 152.05 58.225C142.493 52.585 131.762 49.765 119.855 49.765C107.635 49.765 96.59 52.6633 86.72 58.46C76.85 64.2567 69.095 72.09 63.455 81.96C57.9717 91.6733 55.3083 102.17 55.465 113.45H5.175C5.175 91.83 10.11 72.7167 19.98 56.11C29.85 39.3467 43.5583 26.3433 61.105 17.1C78.6517 7.7 98.5483 3 120.795 3C141.788 3 160.823 7.85666 177.9 17.57C194.977 27.1266 208.372 40.4433 218.085 57.52C227.955 74.44 232.89 93.3967 232.89 114.39C232.89 129.43 230.932 142.355 227.015 153.165C223.098 163.818 217.302 173.61 209.625 182.54C202.105 191.47 191.53 201.967 177.9 214.03L79.905 301.45ZM379.02 355.5C356.303 355.5 336.015 350.487 318.155 340.46C300.295 330.277 286.273 316.255 276.09 298.395C266.063 280.535 261.05 260.247 261.05 237.53V120.97C261.05 98.2533 266.063 77.965 276.09 60.105C286.273 42.245 300.295 28.3017 318.155 18.275C336.015 8.09166 356.303 3 379.02 3C401.736 3 422.025 8.09166 439.885 18.275C457.745 28.3017 471.688 42.245 481.715 60.105C491.898 77.965 496.99 98.2533 496.99 120.97V237.53C496.99 260.247 491.898 280.535 481.715 298.395C471.688 316.255 457.745 330.277 439.885 340.46C422.025 350.487 401.736 355.5 379.02 355.5ZM379.02 308.5C391.396 308.5 402.755 305.523 413.095 299.57C423.591 293.46 431.816 285.235 437.77 274.895C443.88 264.398 446.935 252.962 446.935 240.585V117.445C446.935 105.068 443.88 93.71 437.77 83.37C431.816 73.03 423.591 64.8833 413.095 58.93C402.755 52.82 391.396 49.765 379.02 49.765C366.643 49.765 355.206 52.82 344.71 58.93C334.37 64.8833 326.145 73.03 320.035 83.37C314.081 93.71 311.105 105.068 311.105 117.445V240.585C311.105 252.962 314.081 264.398 320.035 274.895C326.145 285.235 334.37 293.46 344.71 299.57C355.206 305.523 366.643 308.5 379.02 308.5ZM600.907 301.45H753.892V348.215H525.002L525.237 304.505L672.582 172.435C683.862 162.408 691.774 152.695 696.317 143.295C701.017 133.895 703.367 124.025 703.367 113.685C703.367 101.778 700.704 90.9683 695.377 81.255C690.051 71.385 682.609 63.7083 673.052 58.225C663.496 52.585 652.764 49.765 640.857 49.765C628.637 49.765 617.592 52.6633 607.722 58.46C597.852 64.2567 590.097 72.09 584.457 81.96C578.974 91.6733 576.311 102.17 576.467 113.45H526.177C526.177 91.83 531.112 72.7167 540.982 56.11C550.852 39.3467 564.561 26.3433 582.107 17.1C599.654 7.7 619.551 3 641.797 3C662.791 3 681.826 7.85666 698.902 17.57C715.979 27.1266 729.374 40.4433 739.087 57.52C748.957 74.44 753.892 93.3967 753.892 114.39C753.892 129.43 751.934 142.355 748.017 153.165C744.101 163.818 738.304 173.61 730.627 182.54C723.107 191.47 712.532 201.967 698.902 214.03L600.907 301.45ZM900.022 355.5C877.305 355.5 857.017 350.487 839.157 340.46C821.297 330.277 807.275 316.255 797.092 298.395C787.065 280.535 782.052 260.247 782.052 237.53V120.97C782.052 98.2533 787.065 77.965 797.092 60.105C807.275 42.245 821.297 28.3017 839.157 18.275C857.017 8.09166 877.305 3 900.022 3C922.739 3 943.027 8.09166 960.887 18.275C978.747 28.3017 992.69 42.245 1002.72 60.105C1012.9 77.965 1017.99 98.2533 1017.99 120.97V237.53C1017.99 260.247 1012.9 280.535 1002.72 298.395C992.69 316.255 978.747 330.277 960.887 340.46C943.027 350.487 922.739 355.5 900.022 355.5ZM900.022 308.5C912.399 308.5 923.757 305.523 934.097 299.57C944.594 293.46 952.819 285.235 958.772 274.895C964.882 264.398 967.937 252.962 967.937 240.585V117.445C967.937 105.068 964.882 93.71 958.772 83.37C952.819 73.03 944.594 64.8833 934.097 58.93C923.757 52.82 912.399 49.765 900.022 49.765C887.645 49.765 876.209 52.82 865.712 58.93C855.372 64.8833 847.147 73.03 841.037 83.37C835.084 93.71 832.107 105.068 832.107 117.445V240.585C832.107 252.962 835.084 264.398 841.037 274.895C847.147 285.235 855.372 293.46 865.712 299.57C876.209 305.523 887.645 308.5 900.022 308.5Z"/>
    </mask>
    <path d="M79.905 301.45H232.89V348.215H4L4.235 304.505L151.58 172.435C162.86 162.408 170.772 152.695 175.315 143.295C180.015 133.895 182.365 124.025 182.365 113.685C182.365 101.778 179.702 90.9683 174.375 81.255C169.048 71.385 161.607 63.7083 152.05 58.225C142.493 52.585 131.762 49.765 119.855 49.765C107.635 49.765 96.59 52.6633 86.72 58.46C76.85 64.2567 69.095 72.09 63.455 81.96C57.9717 91.6733 55.3083 102.17 55.465 113.45H5.175C5.175 91.83 10.11 72.7167 19.98 56.11C29.85 39.3467 43.5583 26.3433 61.105 17.1C78.6517 7.7 98.5483 3 120.795 3C141.788 3 160.823 7.85666 177.9 17.57C194.977 27.1266 208.372 40.4433 218.085 57.52C227.955 74.44 232.89 93.3967 232.89 114.39C232.89 129.43 230.932 142.355 227.015 153.165C223.098 163.818 217.302 173.61 209.625 182.54C202.105 191.47 191.53 201.967 177.9 214.03L79.905 301.45ZM379.02 355.5C356.303 355.5 336.015 350.487 318.155 340.46C300.295 330.277 286.273 316.255 276.09 298.395C266.063 280.535 261.05 260.247 261.05 237.53V120.97C261.05 98.2533 266.063 77.965 276.09 60.105C286.273 42.245 300.295 28.3017 318.155 18.275C336.015 8.09166 356.303 3 379.02 3C401.736 3 422.025 8.09166 439.885 18.275C457.745 28.3017 471.688 42.245 481.715 60.105C491.898 77.965 496.99 98.2533 496.99 120.97V237.53C496.99 260.247 491.898 280.535 481.715 298.395C471.688 316.255 457.745 330.277 439.885 340.46C422.025 350.487 401.736 355.5 379.02 355.5ZM379.02 308.5C391.396 308.5 402.755 305.523 413.095 299.57C423.591 293.46 431.816 285.235 437.77 274.895C443.88 264.398 446.935 252.962 446.935 240.585V117.445C446.935 105.068 443.88 93.71 437.77 83.37C431.816 73.03 423.591 64.8833 413.095 58.93C402.755 52.82 391.396 49.765 379.02 49.765C366.643 49.765 355.206 52.82 344.71 58.93C334.37 64.8833 326.145 73.03 320.035 83.37C314.081 93.71 311.105 105.068 311.105 117.445V240.585C311.105 252.962 314.081 264.398 320.035 274.895C326.145 285.235 334.37 293.46 344.71 299.57C355.206 305.523 366.643 308.5 379.02 308.5ZM600.907 301.45H753.892V348.215H525.002L525.237 304.505L672.582 172.435C683.862 162.408 691.774 152.695 696.317 143.295C701.017 133.895 703.367 124.025 703.367 113.685C703.367 101.778 700.704 90.9683 695.377 81.255C690.051 71.385 682.609 63.7083 673.052 58.225C663.496 52.585 652.764 49.765 640.857 49.765C628.637 49.765 617.592 52.6633 607.722 58.46C597.852 64.2567 590.097 72.09 584.457 81.96C578.974 91.6733 576.311 102.17 576.467 113.45H526.177C526.177 91.83 531.112 72.7167 540.982 56.11C550.852 39.3467 564.561 26.3433 582.107 17.1C599.654 7.7 619.551 3 641.797 3C662.791 3 681.826 7.85666 698.902 17.57C715.979 27.1266 729.374 40.4433 739.087 57.52C748.957 74.44 753.892 93.3967 753.892 114.39C753.892 129.43 751.934 142.355 748.017 153.165C744.101 163.818 738.304 173.61 730.627 182.54C723.107 191.47 712.532 201.967 698.902 214.03L600.907 301.45ZM900.022 355.5C877.305 355.5 857.017 350.487 839.157 340.46C821.297 330.277 807.275 316.255 797.092 298.395C787.065 280.535 782.052 260.247 782.052 237.53V120.97C782.052 98.2533 787.065 77.965 797.092 60.105C807.275 42.245 821.297 28.3017 839.157 18.275C857.017 8.09166 877.305 3 900.022 3C922.739 3 943.027 8.09166 960.887 18.275C978.747 28.3017 992.69 42.245 1002.72 60.105C1012.9 77.965 1017.99 98.2533 1017.99 120.97V237.53C1017.99 260.247 1012.9 280.535 1002.72 298.395C992.69 316.255 978.747 330.277 960.887 340.46C943.027 350.487 922.739 355.5 900.022 355.5ZM900.022 308.5C912.399 308.5 923.757 305.523 934.097 299.57C944.594 293.46 952.819 285.235 958.772 274.895C964.882 264.398 967.937 252.962 967.937 240.585V117.445C967.937 105.068 964.882 93.71 958.772 83.37C952.819 73.03 944.594 64.8833 934.097 58.93C923.757 52.82 912.399 49.765 900.022 49.765C887.645 49.765 876.209 52.82 865.712 58.93C855.372 64.8833 847.147 73.03 841.037 83.37C835.084 93.71 832.107 105.068 832.107 117.445V240.585C832.107 252.962 835.084 264.398 841.037 274.895C847.147 285.235 855.372 293.46 865.712 299.57C876.209 305.523 887.645 308.5 900.022 308.5Z" stroke="#FC55F5" stroke-width="6" mask="url(#path-1-outside-1_1064_60109)"/>
</svg>
