<svg width="752" height="359" viewBox="0 0 752 359" fill="none" xmlns="http://www.w3.org/2000/svg">
<path d="M54.555 157.616V120.735C54.555 108.618 57.5427 97.2787 63.5259 86.6931L63.5304 86.685C69.5131 75.9468 77.7895 67.3626 88.3799 60.9163C98.9368 54.4904 110.883 51.265 124.26 51.265C134.836 51.265 144.786 53.6385 154.13 58.3873L154.139 58.3916C163.655 63.1495 171.625 69.6651 178.066 77.9459L179.074 79.2423L180.274 78.1209L216.229 44.5159L217.286 43.528L216.337 42.436C204.758 29.112 191.026 19.0283 175.151 12.2005C159.44 5.21927 142.47 1.73498 124.26 1.73498C100.378 1.73498 79.0484 6.95658 60.3128 17.4358L60.308 17.4385C41.7288 27.9191 27.2727 42.6954 16.9573 61.7383C6.63732 80.6328 1.5 102.428 1.5 127.08V234.945C1.5 258.049 6.64558 278.906 16.9637 297.478L16.9685 297.487C27.4345 316.04 41.6406 330.647 59.575 341.28L59.5835 341.285C77.5291 351.767 97.4542 357 119.325 357C140.414 357 159.94 351.923 177.874 341.765L177.878 341.763C195.958 331.454 210.324 317.487 220.954 299.875C231.595 282.247 236.915 262.943 236.915 241.995C236.915 220.921 232.08 201.787 222.388 184.626C212.857 167.473 199.584 153.962 182.59 144.114C165.737 134.257 146.829 129.34 125.905 129.34C111.919 129.34 98.4836 132.043 85.6094 137.447L85.6033 137.45C73.9984 142.382 63.6465 149.105 54.555 157.616ZM151.703 298.04L151.694 298.045C141.908 303.856 131.129 306.765 119.325 306.765C107.523 306.765 96.6641 303.857 86.7172 298.043C76.9136 292.221 69.1058 284.338 63.28 274.373C57.4622 264.422 54.555 253.638 54.555 241.995C54.555 230.191 57.4639 219.413 63.2748 209.626L63.28 209.617C69.1032 199.656 76.9863 191.773 86.947 185.95C96.8953 180.134 107.756 177.225 119.56 177.225C131.364 177.225 142.143 180.134 151.929 185.945L151.938 185.95C161.895 191.771 169.696 199.649 175.361 209.602L175.368 209.614L175.375 209.626C181.186 219.413 184.095 230.191 184.095 241.995C184.095 253.797 181.187 264.656 175.373 274.603C169.551 284.407 161.668 292.214 151.703 298.04ZM280.446 299.129L280.451 299.138C290.767 317.231 304.983 331.447 323.076 341.763L323.085 341.768C341.193 351.934 361.739 357 384.684 357C407.629 357 428.175 351.934 446.283 341.768L446.292 341.763C464.387 331.446 478.525 317.229 488.685 299.133C499.009 281.024 504.154 260.477 504.154 237.53V120.97C504.154 98.0229 499.009 77.4754 488.685 59.367C478.524 41.2697 464.384 27.1299 446.287 16.9692C428.179 6.64541 407.631 1.5 384.684 1.5C361.737 1.5 341.189 6.64533 323.081 16.9691C304.985 27.1294 290.768 41.2677 280.451 59.362L280.446 59.3707C270.28 77.4787 265.214 98.0248 265.214 120.97V237.53C265.214 260.475 270.28 281.021 280.446 299.129ZM417.996 60.2214L418.007 60.2282L418.019 60.2347C428.286 66.0575 436.316 74.0133 442.134 84.1184L442.138 84.1258L442.143 84.1331C448.112 94.2347 451.099 105.328 451.099 117.445V240.585C451.099 252.702 448.112 263.877 442.138 274.14L442.134 274.147C436.315 284.254 428.281 292.291 418.008 298.272C407.905 304.088 396.807 307 384.684 307C372.564 307 361.387 304.089 351.125 298.272C341.013 292.293 332.976 284.256 326.997 274.144C321.18 263.882 318.269 252.705 318.269 240.585V117.445C318.269 105.324 321.18 94.2274 326.995 84.1258C332.974 74.0105 341.011 66.0518 351.122 60.2299L351.129 60.2264C361.392 54.2524 372.567 51.265 384.684 51.265C396.801 51.265 407.894 54.2523 417.996 60.2214ZM661.797 287.205H663.297V285.705V200.255H748.512H750.012V198.755V159.275V157.775H748.512H663.297V72.795V71.295H661.797H622.317H620.817V72.795V157.775H535.367H533.867V159.275V198.755V200.255H535.367H620.817V285.705V287.205H622.317H661.797Z" stroke="#FC55F5" stroke-width="3"/>
</svg>
